<svg width="24" height="24" viewBox="0 0 24 24" fill="none" xmlns="http://www.w3.org/2000/svg">
<g id="Group 1">
<path id="Vector" fill-rule="evenodd" clip-rule="evenodd" d="M12 2L22 12L12 22L2 12L12 2ZM12 4.8L19.2 12L12 19.2L4.8 12L12 4.8ZM12 15.6C12.9548 15.6001 13.8705 15.2209 14.5457 14.5459C15.2209 13.8708 15.6003 12.9552 15.6004 12.0004C15.6005 11.0456 15.2213 10.1299 14.5463 9.45471C13.8712 8.7795 12.9556 8.40011 12.0008 8.4C11.0461 8.4 10.1304 8.77928 9.45525 9.45442C8.78012 10.1295 8.40083 11.0452 8.40083 12C8.40083 12.9548 8.78012 13.8705 9.45525 14.5456C10.1304 15.2207 11.0461 15.6 12.0008 15.6H12Z" fill="white"/>
<g id="Rectangle 1">
</g>
</g>
</svg>
