<svg width="58" height="60.8976" viewBox="0 0 58 60.8976" fill="none" xmlns="http://www.w3.org/2000/svg">
<g id="World">
<path id="Vector" d="M25.4569 6.96283C26.979 6.85533 28.9388 6.95342 30.4446 7.13287C30.0079 8.33624 29.78 9.13619 29.5153 10.3793C29.3383 10.3578 29.1605 10.3424 28.9824 10.333C27.6478 10.2687 25.3244 10.3518 24.2791 11.3256C24.0985 11.4939 23.9728 11.6917 23.9663 11.9444C23.92 13.7475 29.0511 15.1737 30.2807 16.4784C30.4833 16.6934 30.6598 16.9378 30.6423 17.2465C30.5757 18.4233 27.5646 19.9827 26.6598 20.8125C26.2483 21.1899 25.748 21.6382 25.7324 22.2334C25.6987 23.511 26.6218 23.2286 27.231 23.9144C27.4391 24.1486 27.4821 24.4595 27.4595 24.7622C27.3716 25.9386 26.6676 27.4131 25.7662 28.1862C25.3894 28.5094 24.8774 28.8068 24.3643 28.6752C22.7616 28.2637 21.5127 24.937 17.9574 24.7174C17.1003 24.6645 16.311 25.0224 15.682 25.585C15.02 26.1771 14.4871 27.0277 14.4457 27.9325C14.4166 28.5698 14.6349 29.2538 15.072 29.725C16.0928 30.8253 17.3782 30.0457 18.5834 29.8277C18.8859 29.773 19.1854 29.7838 19.4907 29.7974C20.2387 30.2821 20.421 31.3761 20.4552 32.1053C20.6441 36.1326 21.9967 37.1219 25.6195 38.401C26.5104 38.7156 28.0375 39.6576 28.8363 40.3869C30.0627 41.5065 30.9358 43.265 31.05 44.9444C31.1979 47.8669 26.9762 48.2909 25.2734 50.2639C24.1423 51.398 24.058 53.1083 23.0779 54.2944C22.3006 55.2668 20.0112 55.1575 20.0534 53.638C20.0824 52.5933 20.3891 51.8289 19.9693 50.8164C19.6895 50.1412 19.3011 49.2656 19.2737 48.5361C19.2391 47.6131 20.4495 46.5724 19.5917 45.7217C18.5297 44.6498 16.9248 44.2581 15.861 43.1755C13.6774 40.6553 18.6933 39.9452 18.6269 37.6576C18.565 35.5294 16.2779 35.0082 14.633 34.5109C12.6645 33.9157 10.6806 33.2009 9.25174 31.6401C7.32991 29.474 5.96108 25.7705 6.07547 22.8827C4.69264 25.6406 3.82872 28.2079 3.48976 31.3018C2.79531 37.5775 4.64249 43.87 8.61893 48.7745C16.9462 59.0992 31.7594 60.4319 42.0239 52.1582L43.008 51.3172C41.118 49.4723 42.8583 48.5577 42.6142 46.7777C42.4546 45.9268 40.625 45.9462 40.4622 45.2975C39.8783 42.9708 42.1793 42.7961 43.1123 41.3773C43.2832 41.1174 43.0766 40.5538 42.9688 40.3216C42.0122 38.2599 40.1459 38.9798 38.4429 38.3556C34.7375 36.9309 37.4396 35.0003 35.3808 33.1955C34.5158 32.3113 31.7474 31.9527 31.3581 30.7481C30.5441 28.2288 32.1445 26.1561 34.1974 25.2414C34.334 25.4222 34.4811 25.5805 34.6309 25.7495C36.7776 28.1713 39.0661 30.5117 40.6294 33.375C41.261 34.5316 41.6041 35.9304 42.6389 36.8157C43.3858 37.4548 44.327 37.7433 45.3048 37.6678C46.2167 37.599 47.0709 37.1955 47.7035 36.5352C48.4636 35.7335 49.0784 33.874 49.763 32.7644C50.8957 30.9281 51.9801 29.6386 53.373 28.0043C53.5229 29.385 53.8178 30.3961 53.9208 31.971C54.4545 39.1493 52.0824 46.2412 47.3371 51.6537C42.6797 57.013 36.0921 60.3134 29.0111 60.8348C21.6512 61.3104 14.744 59.0838 9.18287 54.193C3.82102 49.4937 0.54155 42.8598 0.063554 35.7462C-0.43216 28.5406 1.98752 21.4379 6.77906 16.0336C11.5415 10.634 18.2685 7.36708 25.4569 6.96283Z" fill="white" fill-opacity="0.8"/>
<path id="Vector_2" d="M43.7394 0.0571142C43.9387 0.020712 44.5585 0.010183 44.7843 0.00534403C46.7607 -0.0522888 48.7227 0.356921 50.5113 1.19975C53.6452 2.65846 56.069 5.3054 57.2469 8.55535C57.944 10.4847 58.0475 11.9208 57.9842 13.9082C57.774 20.5145 52.8551 23.9267 49.1581 28.6961C47.6268 30.6718 46.9148 32.0879 45.8727 34.3113C45.4552 35.0755 44.5736 35.0755 44.1752 34.3141C43.8873 33.7638 43.6448 33.1571 43.3629 32.5934C42.8331 31.5499 42.2265 30.5472 41.5481 29.5935C39.2829 26.3865 35.7121 23.2826 33.8561 20.0622C32.8942 18.4104 32.3007 16.5701 32.1165 14.6675C31.757 11.0579 32.8515 7.45394 35.1578 4.65401C37.284 2.03037 40.3772 0.373449 43.7394 0.0571142Z" fill="#FF7439"/>
<path id="Vector_3" d="M44.4319 18.6291C43.3259 18.6678 41.9127 17.8832 41.1188 17.1419C39.9839 16.0881 39.3193 14.624 39.2736 13.0771C39.2226 11.4744 39.7516 10.0114 40.8588 8.8401C41.9344 7.69006 43.4274 7.01947 45.0026 6.97885C46.57 6.94759 48.0851 7.54205 49.2119 8.6304C50.3436 9.71454 50.995 11.205 51.0216 12.7708C51.0426 14.3386 50.4317 15.8491 49.3263 16.9626C48.5484 17.7577 47.1324 18.6158 46.0049 18.6323C45.9494 18.6335 45.8938 18.6328 45.8382 18.6302L45.83 18.7189C45.4434 18.7405 44.8446 18.7236 44.4497 18.7172L44.4319 18.6291Z" fill="#491662"/>
</g>
</svg>
