<svg preserveAspectRatio="none" width="100%" height="100%" overflow="visible" style="display: block;" viewBox="0 0 59.7045 58.9085" fill="none" xmlns="http://www.w3.org/2000/svg">
<g id="Slider Arrows">
<path id="Oval" opacity="0.8" d="M29.8522 1.59244C45.437 1.59244 58.1117 14.0437 58.112 29.4538C58.112 44.8641 45.4372 57.3161 29.8522 57.3161C14.2672 57.3161 1.59244 44.8641 1.59244 29.4538C1.5927 14.0437 14.2674 1.59247 29.8522 1.59244Z" fill="var(--fill-0, white)" stroke="var(--stroke-0, white)" stroke-width="3.18424"/>
<g id="bounds">
</g>
<path id="icon" fill-rule="evenodd" clip-rule="evenodd" d="M40.2842 29.0164L25.652 43.0901C24.8014 43.9083 23.4222 43.9083 22.5716 43.0901C21.721 42.2719 21.721 40.9454 22.5716 40.1272L34.1233 29.0164L22.5716 17.9056C21.721 17.0874 21.721 15.7609 22.5716 14.9427C23.4222 14.1245 24.8014 14.1245 25.652 14.9427L40.2842 29.0164Z" fill="var(--fill-0, black)"/>
</g>
</svg>
