<svg preserveAspectRatio="none" width="100%" height="100%" overflow="visible" style="display: block;" viewBox="0 0 20 20" fill="none" xmlns="http://www.w3.org/2000/svg">
<g id="boxicons:cart">
<path id="Vector" d="M17.5 5H5.875L4.95 2.23333C4.8941 2.06782 4.78759 1.92405 4.64552 1.82237C4.50346 1.72068 4.33304 1.66622 4.15833 1.66667H1.65833V3.33333H3.55833L6.50833 12.1917C6.61872 12.5243 6.83113 12.8136 7.11538 13.0185C7.39962 13.2235 7.74124 13.3337 8.09167 13.3333H14.4167C14.7558 13.3327 15.0867 13.2287 15.3651 13.0351C15.6435 12.8416 15.8563 12.5677 15.975 12.25L18.275 6.125C18.3667 5.86667 18.3333 5.58333 18.1833 5.35833C18.1068 5.24795 18.0046 5.15771 17.8856 5.09532C17.7667 5.03292 17.6344 5.00022 17.5 5ZM14.425 11.6667H8.1L6.43333 6.66667H16.3L14.425 11.6667ZM8.33333 15C7.89131 15 7.46738 15.1756 7.15482 15.4882C6.84226 15.8007 6.66667 16.2246 6.66667 16.6667C6.66667 17.1087 6.84226 17.5326 7.15482 17.8452C7.46738 18.1577 7.89131 18.3333 8.33333 18.3333C8.77536 18.3333 9.19928 18.1577 9.51184 17.8452C9.82441 17.5326 10 17.1087 10 16.6667C10 16.2246 9.82441 15.8007 9.51184 15.4882C9.19928 15.1756 8.77536 15 8.33333 15ZM14.1667 15C13.7246 15 13.3007 15.1756 12.9882 15.4882C12.6756 15.8007 12.5 16.2246 12.5 16.6667C12.5 17.1087 12.6756 17.5326 12.9882 17.8452C13.3007 18.1577 13.7246 18.3333 14.1667 18.3333C14.6087 18.3333 15.0326 18.1577 15.3452 17.8452C15.6577 17.5326 15.8333 17.1087 15.8333 16.6667C15.8333 16.2246 15.6577 15.8007 15.3452 15.4882C15.0326 15.1756 14.6087 15 14.1667 15Z" fill="var(--fill-0, #FCFCFC)"/>
</g>
</svg>
