<svg preserveAspectRatio="none" width="100%" height="100%" overflow="visible" style="display: block;" viewBox="0 0 32 32" fill="none" xmlns="http://www.w3.org/2000/svg">
<g id="boxicons:cart">
<path id="Vector" d="M28 7.99935H9.39999L7.91999 3.57269C7.83054 3.30786 7.66012 3.07784 7.43283 2.91514C7.20553 2.75245 6.93285 2.6653 6.65332 2.66602H2.65332V5.33269H5.69332L10.4133 19.506C10.5899 20.0382 10.9298 20.5011 11.3846 20.829C11.8394 21.157 12.386 21.3332 12.9467 21.3327H23.0667C23.6092 21.3317 24.1386 21.1653 24.5841 20.8556C25.0297 20.5459 25.3701 20.1076 25.56 19.5994L29.24 9.79935C29.3867 9.38602 29.3333 8.93269 29.0933 8.57269C28.9708 8.39607 28.8074 8.25169 28.617 8.15186C28.4266 8.05203 28.2149 7.99971 28 7.99935ZM23.08 18.666H12.96L10.2933 10.666H26.08L23.08 18.666ZM13.3333 23.9994C12.6261 23.9994 11.9478 24.2803 11.4477 24.7804C10.9476 25.2805 10.6667 25.9588 10.6667 26.666C10.6667 27.3733 10.9476 28.0515 11.4477 28.5516C11.9478 29.0517 12.6261 29.3327 13.3333 29.3327C14.0406 29.3327 14.7188 29.0517 15.2189 28.5516C15.719 28.0515 16 27.3733 16 26.666C16 25.9588 15.719 25.2805 15.2189 24.7804C14.7188 24.2803 14.0406 23.9994 13.3333 23.9994ZM22.6667 23.9994C21.9594 23.9994 21.2811 24.2803 20.781 24.7804C20.2809 25.2805 20 25.9588 20 26.666C20 27.3733 20.2809 28.0515 20.781 28.5516C21.2811 29.0517 21.9594 29.3327 22.6667 29.3327C23.3739 29.3327 24.0522 29.0517 24.5523 28.5516C25.0524 28.0515 25.3333 27.3733 25.3333 26.666C25.3333 25.9588 25.0524 25.2805 24.5523 24.7804C24.0522 24.2803 23.3739 23.9994 22.6667 23.9994Z" fill="var(--fill-0, black)"/>
</g>
</svg>
