<svg preserveAspectRatio="none" width="100%" height="100%" overflow="visible" style="display: block;" viewBox="0 0 13.7717 13.7717" fill="none" xmlns="http://www.w3.org/2000/svg">
<g id="Group 1">
<path id="Vector" fill-rule="evenodd" clip-rule="evenodd" d="M7.45965 1.24328L13.676 7.45965L7.45965 13.676L1.24328 7.45965L7.45965 1.24328ZM7.45965 2.98386L11.9354 7.45965L7.45965 11.9354L2.98386 7.45965L7.45965 2.98386ZM7.45965 9.69754C8.05318 9.69761 8.62242 9.4619 9.04216 9.04226C9.46189 8.62263 9.69773 8.05344 9.6978 7.45991C9.69787 6.86638 9.46216 6.29714 9.04252 5.8774C8.62288 5.45767 8.05369 5.22182 7.46017 5.22175C6.86664 5.22175 6.29742 5.45753 5.87774 5.87722C5.45805 6.29691 5.22227 6.86612 5.22227 7.45965C5.22227 8.05318 5.45805 8.62239 5.87774 9.04208C6.29742 9.46177 6.86664 9.69754 7.46017 9.69754H7.45965Z" fill="var(--fill-0, #242129)"/>
<g id="Rectangle 1">
</g>
</g>
</svg>
