<svg xmlns="http://www.w3.org/2000/svg" viewBox="0 0 20 20"><path fill="currentColor" d="M7.50049 12.5957C7.99711 12.5958 8.4818 12.7503 8.88721 13.0371C9.2926 13.324 9.59891 13.7299 9.76416 14.1982L9.7876 14.2646H15.8335C16.028 14.2646 16.2145 14.342 16.3521 14.4795C16.4896 14.617 16.5669 14.8036 16.5669 14.998C16.5669 15.1925 16.4895 15.3791 16.3521 15.5166C16.2145 15.6541 16.028 15.7314 15.8335 15.7314H9.7876L9.76416 15.7979C9.59892 16.2662 9.29255 16.6721 8.88721 16.959C8.4818 17.2458 7.99711 17.4003 7.50049 17.4004C7.00381 17.4004 6.51924 17.2458 6.11377 16.959C5.70828 16.6721 5.40112 16.2663 5.23584 15.7979L5.2124 15.7314H4.1665C3.97213 15.7314 3.7854 15.6541 3.64795 15.5166C3.51055 15.3791 3.43311 15.1924 3.43311 14.998C3.43313 14.8036 3.51052 14.617 3.64795 14.4795C3.7854 14.342 3.97213 14.2647 4.1665 14.2646H5.2124L5.23584 14.1982C5.40112 13.7298 5.70828 13.324 6.11377 13.0371C6.51922 12.7503 7.00384 12.5957 7.50049 12.5957ZM7.50049 14.0645C7.25305 14.0645 7.01535 14.163 6.84033 14.3379C6.66532 14.5129 6.56692 14.7505 6.56689 14.998C6.56689 15.2456 6.6653 15.4832 6.84033 15.6582C7.01535 15.8332 7.25301 15.9316 7.50049 15.9316C7.74777 15.9316 7.98474 15.833 8.15967 15.6582C8.3347 15.4832 8.43311 15.2456 8.43311 14.998C8.43308 14.7505 8.33468 14.5129 8.15967 14.3379C7.98475 14.1632 7.74773 14.0645 7.50049 14.0645ZM12.5005 7.5957C12.9971 7.59577 13.4818 7.75025 13.8872 8.03711C14.2926 8.32402 14.5989 8.72989 14.7642 9.19824L14.7876 9.26465H15.8335C16.028 9.26465 16.2145 9.34199 16.3521 9.47949C16.4896 9.617 16.5669 9.80359 16.5669 9.99805C16.5669 10.1925 16.4895 10.3791 16.3521 10.5166C16.2145 10.6541 16.028 10.7314 15.8335 10.7314H14.7876L14.7642 10.7979C14.5989 11.2662 14.2926 11.6721 13.8872 11.959C13.4818 12.2458 12.9971 12.4003 12.5005 12.4004C12.0038 12.4004 11.5192 12.2458 11.1138 11.959C10.7083 11.6721 10.4011 11.2663 10.2358 10.7979L10.2124 10.7314H4.1665C3.97213 10.7314 3.7854 10.6541 3.64795 10.5166C3.51055 10.3791 3.43311 10.1924 3.43311 9.99805C3.43313 9.80364 3.51052 9.61699 3.64795 9.47949C3.7854 9.34204 3.97213 9.26473 4.1665 9.26465H10.2124L10.2358 9.19824C10.4011 8.72981 10.7083 8.32403 11.1138 8.03711C11.5192 7.75029 12.0038 7.5957 12.5005 7.5957ZM12.5005 9.06445C12.2531 9.06445 12.0153 9.16299 11.8403 9.33789C11.6653 9.5129 11.5669 9.75054 11.5669 9.99805C11.5669 10.2456 11.6653 10.4832 11.8403 10.6582C12.0154 10.8332 12.253 10.9316 12.5005 10.9316C12.7478 10.9316 12.9847 10.833 13.1597 10.6582C13.3347 10.4832 13.4331 10.2456 13.4331 9.99805C13.4331 9.75054 13.3347 9.5129 13.1597 9.33789C12.9847 9.16316 12.7477 9.06454 12.5005 9.06445ZM7.50049 2.5957C7.99711 2.59577 8.4818 2.75025 8.88721 3.03711C9.2926 3.32402 9.59891 3.72989 9.76416 4.19824L9.7876 4.26465H15.8335C16.028 4.26465 16.2145 4.34199 16.3521 4.47949C16.4896 4.617 16.5669 4.80359 16.5669 4.99805C16.5669 5.19252 16.4895 5.37908 16.3521 5.5166C16.2145 5.65413 16.028 5.73145 15.8335 5.73145H9.7876L9.76416 5.79785C9.59892 6.26617 9.29255 6.67208 8.88721 6.95898C8.4818 7.24584 7.99711 7.40032 7.50049 7.40039C7.00381 7.40039 6.51924 7.24584 6.11377 6.95898C5.70828 6.67207 5.40112 6.26628 5.23584 5.79785L5.2124 5.73145H4.1665C3.97213 5.73136 3.7854 5.65405 3.64795 5.5166C3.51055 5.37909 3.43311 5.19244 3.43311 4.99805C3.43313 4.80364 3.51052 4.61699 3.64795 4.47949C3.7854 4.34204 3.97213 4.26473 4.1665 4.26465H5.2124L5.23584 4.19824C5.40112 3.72981 5.70828 3.32403 6.11377 3.03711C6.51922 2.75029 7.00384 2.5957 7.50049 2.5957ZM7.50049 4.06445C7.25305 4.06445 7.01535 4.16299 6.84033 4.33789C6.66532 4.5129 6.56692 4.75054 6.56689 4.99805C6.56689 5.24558 6.6653 5.48317 6.84033 5.6582C7.01535 5.83316 7.25301 5.93164 7.50049 5.93164C7.74777 5.93155 7.98474 5.83298 8.15967 5.6582C8.3347 5.48317 8.43311 5.24558 8.43311 4.99805C8.43308 4.75054 8.33468 4.5129 8.15967 4.33789C7.98475 4.16316 7.74773 4.06454 7.50049 4.06445Z"/></svg>
