<svg preserveAspectRatio="none" width="100%" height="100%" overflow="visible" style="display: block;" viewBox="0 0 20 20" fill="none" xmlns="http://www.w3.org/2000/svg">
<g id="Favourite">
<path id="heart icn" d="M6.17811 3.05867H6.19666C6.80699 3.05543 7.41165 3.18384 7.9701 3.43562C8.24268 3.55854 8.50168 3.70952 8.74256 3.88582C8.99505 4.07064 9.22797 4.28333 9.4369 4.52058L10.0004 5.16023L10.5629 4.52058C10.7719 4.28322 11.0056 4.0707 11.2582 3.88582C11.4991 3.70952 11.758 3.55853 12.0306 3.43562C12.5891 3.18387 13.1938 3.05538 13.8041 3.05867H13.8217C14.3276 3.04916 14.8305 3.14205 15.3012 3.33211C15.7719 3.5222 16.2012 3.80588 16.5639 4.16707C16.9265 4.52829 17.2153 4.9597 17.4125 5.4366C17.6097 5.91346 17.7114 6.42568 17.7113 6.94343C17.7113 8.58332 16.9202 10.1174 15.6849 11.5919C14.4485 13.0677 12.8407 14.4001 11.3295 15.6495C11.0556 15.8759 10.7842 16.0996 10.5219 16.3194C10.2242 16.5685 9.78111 16.5679 9.4828 16.3165C9.19652 16.0752 8.89983 15.8289 8.59999 15.5802C7.09694 14.3334 5.50709 13.0123 4.28651 11.5499C3.06753 10.0893 2.28846 8.57068 2.28846 6.94343C2.28839 6.42571 2.39012 5.91344 2.58729 5.4366C2.78449 4.95973 3.07328 4.52828 3.43592 4.16707C3.79856 3.80588 4.2279 3.52221 4.69862 3.33211C5.1693 3.14203 5.6722 3.04918 6.17811 3.05867Z" stroke="var(--stroke-0, #242129)" stroke-width="1.5"/>
</g>
</svg>
