<svg preserveAspectRatio="none" width="100%" height="100%" overflow="visible" style="display: block;" viewBox="0 0 21.3333 20.7151" fill="none" xmlns="http://www.w3.org/2000/svg">
<g id="search copy">
<g id="bounds">
</g>
<path id="icon" d="M9.4032 3.45251C12.6323 3.45276 15.2498 5.99465 15.2499 9.13025C15.2499 10.2591 14.9095 11.3103 14.3245 12.1943C14.3033 12.2264 14.3121 12.2656 14.3397 12.2924L17.4296 15.2924C17.8936 15.743 17.8935 16.4735 17.4296 16.9242C16.9654 17.3748 16.213 17.3748 15.7489 16.9242L12.6591 13.9242C12.6315 13.8974 12.5925 13.8886 12.5598 13.909C11.6491 14.4775 10.5654 14.808 9.40222 14.808C6.17313 14.8077 3.55554 12.2658 3.55554 9.13025C3.55556 5.99453 6.1739 3.45251 9.4032 3.45251ZM9.40222 5.42126C7.2926 5.42147 5.58291 7.08166 5.58289 9.13025C5.58289 11.1788 7.29252 12.84 9.40222 12.8402C11.512 12.8402 13.2225 11.1789 13.2225 9.13025C13.2225 7.08159 11.512 5.42126 9.40222 5.42126Z" fill="var(--fill-0, #242129)"/>
</g>
</svg>
