<svg width="512" height="512" viewBox="0 0 64 64" fill="none" xmlns="http://www.w3.org/2000/svg" role="img" aria-label="Decentraland Shop">
  <defs>
    <linearGradient id="amethyst" x1="32" y1="4" x2="32" y2="60" gradientUnits="userSpaceOnUse">
      <stop offset="0" stop-color="#c640cd"/>
      <stop offset="1" stop-color="#691fa9"/>
    </linearGradient>
  </defs>
  <!-- Full-bleed background: masks (circle/squircle) clip the edges, so the color must reach them. -->
  <rect x="0" y="0" width="64" height="64" fill="url(#amethyst)"/>
  <!-- Glyph scaled to ~62% and centered so it stays inside the maskable safe zone (central 40% radius). -->
  <g transform="translate(32 32) scale(0.62) translate(-32 -32)">
    <path d="M22 24h20a3 3 0 0 1 2.98 2.64l2.4 19.2A4 4 0 0 1 45.4 50H18.6a4 4 0 0 1-3.98-4.16l2.4-19.2A3 3 0 0 1 20 24h2Z" fill="#ffffff"/>
    <path d="M25 26v-4a7 7 0 0 1 14 0v4" fill="none" stroke="#ffffff" stroke-width="3.5" stroke-linecap="round"/>
    <path d="M32 31l7 12H25l7-12Z" fill="url(#amethyst)"/>
    <path d="M32 31l7 12h-7V31Z" fill="#691fa9"/>
  </g>
</svg>
