<svg width="64" height="64" viewBox="0 0 64 64" fill="none" xmlns="http://www.w3.org/2000/svg" role="img" aria-label="Decentraland Shop">
  <defs>
    <linearGradient id="amethyst" x1="32" y1="4" x2="32" y2="60" gradientUnits="userSpaceOnUse">
      <stop offset="0" stop-color="#c640cd"/>
      <stop offset="1" stop-color="#691fa9"/>
    </linearGradient>
  </defs>
  <!-- rounded app tile -->
  <rect x="2" y="2" width="60" height="60" rx="14" fill="url(#amethyst)"/>
  <!-- shopping bag -->
  <path d="M22 24h20a3 3 0 0 1 2.98 2.64l2.4 19.2A4 4 0 0 1 45.4 50H18.6a4 4 0 0 1-3.98-4.16l2.4-19.2A3 3 0 0 1 20 24h2Z" fill="#ffffff"/>
  <!-- bag handle -->
  <path d="M25 26v-4a7 7 0 0 1 14 0v4" fill="none" stroke="#ffffff" stroke-width="3.5" stroke-linecap="round"/>
  <!-- decentraland tetrahedron mark on the bag -->
  <path d="M32 31l7 12H25l7-12Z" fill="url(#amethyst)"/>
  <path d="M32 31l7 12h-7V31Z" fill="#691fa9"/>
</svg>
